Exact Audio Copy V0.99 prebeta 5 from 4. May 2009

Отчёт EAC об извлечении, выполненном 3. июня 2009, 14:22

Unknown Artist / Unknown Title

Дисковод: Optiarc DVD RW AD-7200S   Adapter: 2  ID: 0

Режим чтения                 : Достоверность
Использование точного потока : Да
Отключение кэша аудио        : Да
Использование указателей C2  : Нет

Коррекция смещения при чтении                     : 48
Способность читать области Lead-in и Lead-out     : Нет
Заполнение пропущенных сэмплов тишиной            : Да
Удаление блоков с тишиной в начале и конце        : Нет
При вычислениях CRC использовались нулевые сэмплы : Да
Интерфейс                                         : Установленный внешний ASPI-интерфейс

Выходной формат          : Monkey's Audio (без потерь)
Выбранный битрейт        : Normal Lossless Compression
Качество                 : Высокий
Добавление ID3-тэга      : Да
Утилита сжатия           : C:\Program Files\Exact Audio Copy\MAC.exe


TOC извлечённого CD

     Трек |   Старт  | Длительность | Начальный сектор | Конечный сектор 
    ---------------------------------------------------------------------
       1  |  0:00.33 |    3:25.62   |          33      |      15469      
       2  |  3:26.20 |    5:08.35   |       15470      |      38604      
       3  |  8:34.55 |    4:43.73   |       38605      |      59902      
       4  | 13:18.53 |    4:22.02   |       59903      |      79554      
       5  | 17:40.55 |    3:34.20   |       79555      |      95624      
       6  | 21:15.00 |    3:15.60   |       95625      |     110309      
       7  | 24:30.60 |    5:11.05   |      110310      |     133639      
       8  | 29:41.65 |    5:26.20   |      133640      |     158109      
       9  | 35:08.10 |    3:30.53   |      158110      |     173912      
      10  | 38:38.63 |    3:17.02   |      173913      |     188689      


Характеристики диапазона извлечения и сообщения об ошибках

Выбранный диапазон

     Имя файла D:\Music\RIPs\ABBA\ABBA - 1979 - Voulez-Vous\ABBA - 1979 - Voulez-Vous.wav

     Пиковый уровень 84.3 %
     Качество диапазона 100.0 %
     CRC теста 0DFB6211
     CRC копии 0DFB6211
     Копирование... OK

Ошибок не произошло

Конец отчёта
